<svg xmlns="http://www.w3.org/2000/svg" viewBox="0 0 33 31.74"><defs><style>.cls-1{fill:#21bbd1;}</style></defs><title>logo-color</title><g id="Layer_2" data-name="Layer 2"><g id="Layer_1-2" data-name="Layer 1"><path class="cls-1" d="M32.75,25.33a3.94,3.94,0,0,1,0-7.88c.06,0,.15-7.14.19-10.49a2.14,2.14,0,0,0-1.63-2.1L17.47,1.48a1.09,1.09,0,0,1,0,.26,2,2,0,1,1-4,0A1.93,1.93,0,0,1,13.86.6l-2-.48A3.65,3.65,0,0,0,9.33.37L1.16,4.83A2.25,2.25,0,0,0,0,6.8v9.92a1.35,1.35,0,0,1,1.23,1.35A1.36,1.36,0,0,1,0,19.42V30a1.74,1.74,0,0,0,1.73,1.74H31.27A1.74,1.74,0,0,0,33,30V25.32ZM29.5,6.74a1,1,0,1,1-1,1A1,1,0,0,1,29.5,6.74ZM18.3,7a3,3,0,0,1,1.5-.85s.05,0,.08,0h.5a3.77,3.77,0,0,1,.64.23A2.63,2.63,0,0,1,22.38,8.1a5.16,5.16,0,0,1-.8,4.53,3.48,3.48,0,0,1-1.39,1.13,1.79,1.79,0,0,1-1.68-.06A2.79,2.79,0,0,1,17.18,12,5.22,5.22,0,0,1,18.3,7Zm-8,1.06a2.52,2.52,0,0,1,1-1.46,1.78,1.78,0,0,1,1.79-.27,3.72,3.72,0,0,1,2.1,2,5.9,5.9,0,0,1,.54,2.57,3.7,3.7,0,0,1-.55,1.93,2.08,2.08,0,0,1-1.66,1.07,1.88,1.88,0,0,1-.74-.11,3.09,3.09,0,0,1-1.45-1A5.16,5.16,0,0,1,10.28,8.08ZM5.54,4.21a2,2,0,1,1-2,2A2,2,0,0,1,5.54,4.21ZM4.11,29.77A2.39,2.39,0,1,1,6.5,27.38,2.39,2.39,0,0,1,4.11,29.77ZM8.76,19.55a4.17,4.17,0,0,1-2.6-2.44,4.29,4.29,0,0,1-.25-2.91,2,2,0,0,1,2.83-1.29,4.58,4.58,0,0,1,2.52,3.34,6.38,6.38,0,0,1,.09.7,3.13,3.13,0,0,1-.51,1.91A1.79,1.79,0,0,1,8.76,19.55Zm13.49,7a2.89,2.89,0,0,1-1.62-.16c-.52-.21-1-.41-1.55-.63a5.29,5.29,0,0,0-3.95-.08c-.69.23-1.37.49-2.06.7a3.25,3.25,0,0,1-1.72.11,2.21,2.21,0,0,1-1.54-2.58,11.67,11.67,0,0,1,2.41-5,5.64,5.64,0,0,1,4.06-2.17,4.81,4.81,0,0,1,3.18,1,9.83,9.83,0,0,1,2.11,2.16,14.69,14.69,0,0,1,2,3.28,4.3,4.3,0,0,1,.32,1.46A1.81,1.81,0,0,1,22.25,26.53Zm3.12-7.93a3,3,0,0,1-1.59.7,1.76,1.76,0,0,1-1.57-.57,2.85,2.85,0,0,1-.74-2.17A5,5,0,0,1,22.28,14a3.78,3.78,0,0,1,2.15-1.65,1.85,1.85,0,0,1,2,.72,2.93,2.93,0,0,1,.58,1.85A4.8,4.8,0,0,1,25.37,18.6Zm3.57,10.92a1.36,1.36,0,1,1,1.35-1.35A1.36,1.36,0,0,1,28.94,29.52Z"/></g></g></svg>